# MagicaVoxel @ Ephtracy

# material
mtllib Simple Lamp.mtl
usemtl palette

# normals
vn -1 0 0
vn 1 0 0
vn 0 0 1
vn 0 0 -1
vn 0 -1 0
vn 0 1 0

# texcoords
vt 0.958984 0.5
vt 0.990234 0.5

# verts
v -4.5 0 4.5
v -4.5 0 -4.5
v -4.5 1 4.5
v -4.5 1 -4.5
v -4.5 11 4.5
v -4.5 11 -4.5
v -4.5 21 4.5
v -4.5 21 -4.5
v -1.5 1 1.5
v -1.5 1 -1.5
v -1.5 20 1.5
v -1.5 20 -1.5
v 3.5 11 3.5
v 3.5 11 -3.5
v 3.5 20 3.5
v 3.5 20 -3.5
v -3.5 11 3.5
v -3.5 11 -3.5
v -3.5 20 3.5
v -3.5 20 -3.5
v 1.5 1 1.5
v 1.5 1 -1.5
v 1.5 20 1.5
v 1.5 20 -1.5
v 4.5 0 4.5
v 4.5 0 -4.5
v 4.5 1 4.5
v 4.5 1 -4.5
v 4.5 11 4.5
v 4.5 11 -4.5
v 4.5 21 4.5
v 4.5 21 -4.5
v -4.5 0 4.5
v -4.5 1 4.5
v -4.5 11 4.5
v -4.5 21 4.5
v 4.5 0 4.5
v 4.5 1 4.5
v 4.5 11 4.5
v 4.5 21 4.5
v -1.5 1 1.5
v -1.5 20 1.5
v 1.5 1 1.5
v 1.5 20 1.5
v -3.5 11 -3.5
v -3.5 20 -3.5
v 3.5 11 -3.5
v 3.5 20 -3.5
v -3.5 11 3.5
v -3.5 20 3.5
v 3.5 11 3.5
v 3.5 20 3.5
v -1.5 1 -1.5
v -1.5 20 -1.5
v 1.5 1 -1.5
v 1.5 20 -1.5
v -4.5 0 -4.5
v -4.5 1 -4.5
v -4.5 11 -4.5
v -4.5 21 -4.5
v 4.5 0 -4.5
v 4.5 1 -4.5
v 4.5 11 -4.5
v 4.5 21 -4.5
v -4.5 0 4.5
v 4.5 0 4.5
v -4.5 0 -4.5
v 4.5 0 -4.5
v -4.5 11 4.5
v 4.5 11 4.5
v -3.5 11 3.5
v 3.5 11 3.5
v -3.5 11 -3.5
v 3.5 11 -3.5
v -4.5 11 -4.5
v 4.5 11 -4.5
v -3.5 20 3.5
v 3.5 20 3.5
v -1.5 20 1.5
v 1.5 20 1.5
v -1.5 20 -1.5
v 1.5 20 -1.5
v -3.5 20 -3.5
v 3.5 20 -3.5
v -4.5 1 4.5
v 4.5 1 4.5
v -1.5 1 1.5
v 1.5 1 1.5
v -1.5 1 -1.5
v 1.5 1 -1.5
v -4.5 1 -4.5
v 4.5 1 -4.5
v -4.5 21 4.5
v 4.5 21 4.5
v -4.5 21 -4.5
v 4.5 21 -4.5

# faces
f 3/2/1 2/2/1 1/2/1
f 4/2/1 2/2/1 3/2/1
f 7/1/1 6/1/1 5/1/1
f 8/1/1 6/1/1 7/1/1
f 11/2/1 10/2/1 9/2/1
f 12/2/1 10/2/1 11/2/1
f 15/1/1 14/1/1 13/1/1
f 16/1/1 14/1/1 15/1/1
f 17/1/2 18/1/2 19/1/2
f 19/1/2 18/1/2 20/1/2
f 21/2/2 22/2/2 23/2/2
f 23/2/2 22/2/2 24/2/2
f 25/2/2 26/2/2 27/2/2
f 27/2/2 26/2/2 28/2/2
f 29/1/2 30/1/2 31/1/2
f 31/1/2 30/1/2 32/1/2
f 37/2/3 34/2/3 33/2/3
f 38/2/3 34/2/3 37/2/3
f 39/1/3 36/1/3 35/1/3
f 40/1/3 36/1/3 39/1/3
f 43/2/3 42/2/3 41/2/3
f 44/2/3 42/2/3 43/2/3
f 47/1/3 46/1/3 45/1/3
f 48/1/3 46/1/3 47/1/3
f 49/1/4 50/1/4 51/1/4
f 51/1/4 50/1/4 52/1/4
f 53/2/4 54/2/4 55/2/4
f 55/2/4 54/2/4 56/2/4
f 57/2/4 58/2/4 61/2/4
f 61/2/4 58/2/4 62/2/4
f 59/1/4 60/1/4 63/1/4
f 63/1/4 60/1/4 64/1/4
f 67/2/5 66/2/5 65/2/5
f 68/2/5 66/2/5 67/2/5
f 71/1/5 70/1/5 69/1/5
f 72/1/5 70/1/5 71/1/5
f 73/1/5 71/1/5 69/1/5
f 74/1/5 70/1/5 72/1/5
f 75/1/5 73/1/5 69/1/5
f 75/1/5 74/1/5 73/1/5
f 76/1/5 70/1/5 74/1/5
f 76/1/5 74/1/5 75/1/5
f 79/1/5 78/1/5 77/1/5
f 80/1/5 78/1/5 79/1/5
f 81/1/5 79/1/5 77/1/5
f 82/1/5 78/1/5 80/1/5
f 83/1/5 81/1/5 77/1/5
f 83/1/5 82/1/5 81/1/5
f 84/1/5 78/1/5 82/1/5
f 84/1/5 82/1/5 83/1/5
f 85/2/6 86/2/6 87/2/6
f 87/2/6 86/2/6 88/2/6
f 85/2/6 87/2/6 89/2/6
f 88/2/6 86/2/6 90/2/6
f 85/2/6 89/2/6 91/2/6
f 89/2/6 90/2/6 91/2/6
f 90/2/6 86/2/6 92/2/6
f 91/2/6 90/2/6 92/2/6
f 93/1/6 94/1/6 95/1/6
f 95/1/6 94/1/6 96/1/6
